<svg width="128.000000" height="128.000000" viewBox="0 0 128 128" fill="none" xmlns="http://www.w3.org/2000/svg" xmlns:xlink="http://www.w3.org/1999/xlink">
	<desc>
			Created with Pixso.
	</desc>
	<defs>
		<clipPath id="clip2_470">
			<rect id="svg" width="128.000000" height="128.000000" fill="white" fill-opacity="0"/>
		</clipPath>
	</defs>
	<g clip-path="url(#clip2_470)">
		<path id="path" d="M108.89 25.49L106.41 25.49L106.41 15.59C106.41 15.27 106.38 14.94 106.32 14.63C106.25 14.31 106.16 14 106.04 13.7C105.91 13.4 105.76 13.11 105.58 12.84C105.4 12.57 105.19 12.32 104.96 12.09C104.73 11.86 104.48 11.66 104.21 11.48C103.94 11.3 103.66 11.14 103.36 11.02C103.06 10.9 102.75 10.8 102.43 10.74C102.11 10.68 101.79 10.64 101.47 10.64L35.17 10.64C32.75 10.62 30.34 10.42 27.95 10.05C27.24 9.94 26.54 9.99 25.85 10.19C25.16 10.39 24.54 10.72 23.99 11.19C23.45 11.66 23.04 12.23 22.74 12.88C22.45 13.54 22.3 14.23 22.31 14.95L22.31 25.44L19.84 25.44C19.35 25.44 18.87 25.46 18.38 25.51C17.9 25.55 17.42 25.63 16.94 25.72C16.46 25.82 15.99 25.93 15.53 26.07C15.06 26.22 14.61 26.38 14.16 26.57C13.71 26.75 13.27 26.96 12.84 27.19C12.41 27.42 12 27.67 11.59 27.94C11.19 28.21 10.8 28.5 10.42 28.8C10.05 29.11 9.69 29.44 9.34 29.78C9 30.13 8.67 30.49 8.36 30.86C8.06 31.24 7.77 31.63 7.5 32.03C7.23 32.44 6.98 32.85 6.75 33.28C6.52 33.71 6.31 34.15 6.12 34.6C5.94 35.05 5.78 35.5 5.63 35.97C5.49 36.43 5.38 36.91 5.28 37.38C5.19 37.86 5.11 38.34 5.07 38.82C5.02 39.31 5 39.79 5 40.28L5 50.17C5 50.66 5.02 51.14 5.07 51.63C5.11 52.11 5.19 52.59 5.28 53.07C5.38 53.54 5.49 54.01 5.63 54.48C5.78 54.95 5.94 55.4 6.12 55.85C6.31 56.3 6.52 56.74 6.75 57.17C6.98 57.6 7.23 58.01 7.5 58.42C7.77 58.82 8.06 59.21 8.36 59.59C8.67 59.96 9 60.32 9.34 60.67C9.69 61.01 10.05 61.34 10.42 61.64C10.8 61.95 11.19 62.24 11.59 62.51C12 62.78 12.41 63.03 12.84 63.26C13.27 63.49 13.71 63.7 14.16 63.88C14.61 64.07 15.06 64.23 15.53 64.37C15.99 64.52 16.46 64.63 16.94 64.73C17.42 64.82 17.9 64.89 18.38 64.94C18.87 64.99 19.35 65.01 19.84 65.01L26.22 65.01C26.97 66.64 27.83 68.21 28.78 69.73C29.74 71.24 30.78 72.69 31.92 74.08C33.06 75.46 34.28 76.77 35.59 78C36.9 79.22 38.27 80.36 39.73 81.42C41.18 82.47 42.69 83.42 44.26 84.28C45.83 85.14 47.46 85.9 49.12 86.55C50.79 87.2 52.5 87.75 54.24 88.18C55.97 88.62 57.73 88.94 59.51 89.16L59.51 109.54L34.78 109.54C34.45 109.54 34.13 109.57 33.81 109.63C33.49 109.7 33.18 109.79 32.88 109.92C32.58 110.04 32.3 110.19 32.03 110.37C31.76 110.55 31.51 110.76 31.28 110.99C31.05 111.22 30.84 111.47 30.66 111.74C30.48 112.01 30.33 112.29 30.21 112.59C30.08 112.89 29.99 113.2 29.93 113.52C29.86 113.84 29.83 114.16 29.83 114.49C29.83 114.81 29.86 115.13 29.93 115.45C29.99 115.77 30.08 116.08 30.21 116.38C30.33 116.68 30.48 116.96 30.66 117.23C30.84 117.5 31.05 117.75 31.28 117.98C31.51 118.21 31.76 118.42 32.03 118.6C32.3 118.78 32.58 118.93 32.88 119.06C33.18 119.18 33.49 119.27 33.81 119.34C34.13 119.4 34.45 119.43 34.78 119.43L94.14 119.43C94.47 119.43 94.79 119.4 95.11 119.34C95.43 119.27 95.74 119.18 96.04 119.06C96.34 118.93 96.62 118.78 96.89 118.6C97.16 118.42 97.41 118.21 97.64 117.98C97.87 117.75 98.08 117.5 98.26 117.23C98.44 116.96 98.59 116.68 98.71 116.38C98.84 116.08 98.93 115.77 99 115.45C99.06 115.13 99.09 114.81 99.09 114.49C99.09 114.16 99.06 113.84 99 113.52C98.93 113.2 98.84 112.89 98.71 112.59C98.59 112.29 98.44 112.01 98.26 111.74C98.08 111.47 97.87 111.22 97.64 110.99C97.41 110.76 97.16 110.55 96.89 110.37C96.62 110.19 96.34 110.04 96.04 109.92C95.74 109.79 95.43 109.7 95.11 109.63C94.79 109.57 94.47 109.54 94.14 109.54L69.41 109.54L69.41 89.75C69.43 89.55 69.43 89.35 69.41 89.16C71.19 88.95 72.95 88.62 74.69 88.19C76.43 87.76 78.13 87.21 79.8 86.56C81.47 85.91 83.09 85.15 84.67 84.29C86.24 83.43 87.75 82.48 89.2 81.43C90.65 80.37 92.03 79.23 93.34 78.01C94.64 76.78 95.87 75.47 97.01 74.09C98.14 72.7 99.19 71.25 100.14 69.73C101.1 68.21 101.95 66.64 102.7 65.01L109.13 65.01C109.62 65.01 110.1 64.99 110.59 64.94C111.07 64.89 111.55 64.82 112.03 64.73C112.51 64.63 112.98 64.52 113.44 64.37C113.91 64.23 114.36 64.07 114.81 63.88C115.26 63.7 115.7 63.49 116.13 63.26C116.56 63.03 116.98 62.78 117.38 62.51C117.78 62.24 118.17 61.95 118.55 61.64C118.93 61.34 119.28 61.01 119.63 60.67C119.97 60.32 120.3 59.96 120.61 59.59C120.91 59.21 121.2 58.82 121.47 58.42C121.74 58.01 121.99 57.6 122.22 57.17C122.45 56.74 122.66 56.3 122.85 55.85C123.03 55.4 123.2 54.95 123.34 54.48C123.48 54.01 123.6 53.54 123.69 53.07C123.79 52.59 123.86 52.11 123.9 51.63C123.95 51.14 123.98 50.66 123.98 50.17L123.98 40.28C123.97 39.79 123.95 39.3 123.9 38.81C123.85 38.32 123.77 37.84 123.68 37.36C123.58 36.88 123.46 36.4 123.31 35.94C123.17 35.47 123 35.01 122.81 34.56C122.62 34.1 122.41 33.66 122.17 33.23C121.94 32.8 121.68 32.38 121.41 31.98C121.13 31.57 120.84 31.18 120.52 30.81C120.21 30.43 119.87 30.07 119.52 29.73C119.17 29.38 118.81 29.06 118.43 28.75C118.04 28.44 117.65 28.16 117.24 27.89C116.82 27.62 116.4 27.38 115.97 27.15C115.53 26.92 115.09 26.72 114.63 26.54C114.18 26.36 113.71 26.2 113.24 26.06C112.77 25.93 112.29 25.82 111.81 25.73C111.33 25.64 110.84 25.57 110.35 25.53C109.87 25.49 109.38 25.48 108.89 25.49ZM19.84 55.17C19.51 55.17 19.19 55.14 18.87 55.07C18.55 55.01 18.24 54.92 17.94 54.79C17.64 54.67 17.36 54.52 17.09 54.33C16.82 54.15 16.57 53.95 16.34 53.72C16.11 53.49 15.9 53.24 15.72 52.97C15.54 52.7 15.39 52.41 15.27 52.11C15.14 51.81 15.05 51.51 14.98 51.19C14.92 50.87 14.89 50.55 14.89 50.22L14.89 40.33C14.89 40 14.92 39.68 14.98 39.36C15.05 39.04 15.14 38.73 15.27 38.43C15.39 38.13 15.54 37.85 15.72 37.58C15.9 37.31 16.11 37.06 16.34 36.83C16.57 36.6 16.82 36.39 17.09 36.21C17.36 36.03 17.64 35.88 17.94 35.76C18.24 35.63 18.55 35.54 18.87 35.47C19.19 35.41 19.51 35.38 19.84 35.38L22.31 35.38L22.31 47.45C22.31 50.05 22.55 52.62 23.05 55.17L19.84 55.17ZM96.52 47.45C96.52 47.98 96.51 48.5 96.48 49.03C96.45 49.55 96.41 50.08 96.36 50.6C96.31 51.13 96.25 51.65 96.17 52.17C96.09 52.69 96 53.21 95.9 53.72C95.8 54.24 95.68 54.75 95.55 55.26C95.43 55.77 95.29 56.28 95.13 56.79C94.98 57.29 94.82 57.79 94.64 58.28C94.46 58.78 94.27 59.27 94.07 59.76C93.87 60.24 93.66 60.72 93.43 61.2C93.21 61.68 92.97 62.15 92.72 62.61C92.47 63.07 92.21 63.53 91.94 63.98C91.67 64.43 91.39 64.88 91.1 65.32C90.81 65.75 90.5 66.18 90.19 66.61C89.88 67.03 89.55 67.44 89.22 67.85C88.89 68.26 88.54 68.66 88.19 69.05C87.83 69.44 87.47 69.82 87.1 70.19C86.73 70.56 86.35 70.92 85.96 71.28C85.57 71.63 85.17 71.97 84.76 72.31C84.35 72.64 83.94 72.97 83.52 73.28C83.09 73.59 82.66 73.9 82.23 74.19C81.79 74.48 81.34 74.76 80.89 75.03C80.44 75.3 79.98 75.56 79.52 75.81C79.06 76.06 78.59 76.3 78.11 76.52C77.63 76.75 77.15 76.96 76.67 77.16C76.18 77.36 75.69 77.55 75.19 77.73C74.7 77.91 74.2 78.07 73.7 78.22C73.19 78.38 72.69 78.52 72.17 78.64C71.66 78.77 71.15 78.89 70.63 78.99C70.12 79.09 69.6 79.18 69.08 79.26C68.56 79.34 68.04 79.4 67.51 79.45C66.99 79.5 66.46 79.54 65.94 79.57C65.41 79.59 64.89 79.61 64.36 79.61C63.84 79.61 63.31 79.59 62.78 79.57C62.26 79.54 61.73 79.5 61.21 79.45C60.69 79.4 60.16 79.34 59.64 79.26C59.12 79.18 58.6 79.09 58.09 78.99C57.57 78.89 57.06 78.77 56.55 78.64C56.04 78.52 55.53 78.38 55.03 78.22C54.52 78.07 54.02 77.91 53.53 77.73C53.03 77.55 52.54 77.36 52.06 77.16C51.57 76.96 51.09 76.75 50.61 76.52C50.14 76.3 49.67 76.06 49.2 75.81C48.74 75.56 48.28 75.3 47.83 75.03C47.38 74.76 46.93 74.48 46.5 74.19C46.06 73.9 45.63 73.59 45.21 73.28C44.78 72.97 44.37 72.64 43.96 72.31C43.55 71.97 43.16 71.63 42.77 71.28C42.38 70.92 42 70.56 41.62 70.19C41.25 69.82 40.89 69.44 40.53 69.05C40.18 68.66 39.84 68.26 39.5 67.85C39.17 67.44 38.85 67.03 38.53 66.61C38.22 66.18 37.92 65.75 37.62 65.32C37.33 64.88 37.05 64.43 36.78 63.98C36.51 63.53 36.25 63.07 36 62.61C35.75 62.15 35.52 61.68 35.29 61.2C35.07 60.72 34.85 60.24 34.65 59.76C34.45 59.27 34.26 58.78 34.08 58.28C33.91 57.79 33.74 57.29 33.59 56.79C33.44 56.28 33.3 55.77 33.17 55.26C33.04 54.75 32.93 54.24 32.82 53.72C32.72 53.21 32.63 52.69 32.55 52.17C32.48 51.65 32.41 51.13 32.36 50.6C32.31 50.08 32.27 49.55 32.24 49.03C32.22 48.5 32.2 47.98 32.2 47.45L32.2 20.49L96.52 20.49L96.52 47.45ZM113.83 50.22C113.83 50.55 113.8 50.87 113.74 51.19C113.68 51.51 113.58 51.81 113.46 52.11C113.33 52.41 113.18 52.7 113 52.97C112.82 53.24 112.61 53.49 112.38 53.72C112.16 53.95 111.91 54.15 111.64 54.33C111.36 54.52 111.08 54.67 110.78 54.79C110.48 54.92 110.17 55.01 109.85 55.07C109.53 55.14 109.21 55.17 108.89 55.17L105.67 55.17C106.14 52.62 106.39 50.05 106.41 47.45L106.41 35.38L108.89 35.38C109.21 35.38 109.53 35.41 109.85 35.47C110.17 35.54 110.48 35.63 110.78 35.76C111.08 35.88 111.36 36.03 111.64 36.21C111.91 36.39 112.16 36.6 112.38 36.83C112.61 37.06 112.82 37.31 113 37.58C113.18 37.85 113.33 38.13 113.46 38.43C113.58 38.73 113.68 39.04 113.74 39.36C113.8 39.68 113.83 40 113.83 40.33L113.83 50.22Z" fill="#FFFFFF" fill-opacity="1.000000" fill-rule="nonzero"/>
	</g>
</svg>
