<svg width="128.000000" height="128.000000" viewBox="0 0 128 128" fill="none" xmlns="http://www.w3.org/2000/svg" xmlns:xlink="http://www.w3.org/1999/xlink">
	<desc>
			Created with Pixso.
	</desc>
	<defs>
		<clipPath id="clip2_484">
			<rect id="svg" width="128.000000" height="128.000000" fill="white" fill-opacity="0"/>
		</clipPath>
	</defs>
	<g clip-path="url(#clip2_484)">
		<path id="path" d="M95.16 13.72C113.31 13.72 128.02 28.44 128.02 46.59L128.02 94.17C128.02 104.91 119.62 113.69 109.02 114.29L107.88 114.32L88.62 114.32C88.05 114.32 87.49 114.1 87.07 113.71L64.78 93.05C64.68 92.96 64.56 92.88 64.43 92.83C64.29 92.77 64.15 92.75 64.01 92.75C63.86 92.75 63.73 92.77 63.59 92.83C63.46 92.88 63.34 92.96 63.23 93.05L40.9 113.71C40.58 114.01 40.21 114.2 39.78 114.28L39.35 114.32L20.12 114.32C9.01 114.32 0 105.31 0 94.19L0 46.59C0 28.44 14.71 13.73 32.86 13.73L95.16 13.72ZM93.73 40.02L34.29 40.02C20.4 40.02 9.14 51.27 9.14 65.16L9.14 94.19C9.14 100.26 14.06 105.17 20.12 105.17L36.66 105.17L57.02 86.33C60.96 82.67 67.06 82.68 71 86.33L91.32 105.17L107.87 105.17C113.95 105.17 118.88 100.25 118.88 94.17L118.88 65.16C118.88 51.27 107.62 40.02 93.73 40.02ZM36.58 49.16C46.68 49.16 54.86 57.35 54.86 67.45C54.86 77.55 46.68 85.74 36.58 85.74C26.47 85.74 18.29 77.55 18.29 67.45C18.29 57.35 26.47 49.16 36.58 49.16ZM91.44 49.16C101.54 49.16 109.73 57.35 109.73 67.45C109.73 77.55 101.54 85.74 91.44 85.74C81.34 85.74 73.15 77.55 73.15 67.45C73.15 57.35 81.34 49.16 91.44 49.16ZM36.58 57.16C30.89 57.16 26.29 61.77 26.29 67.45C26.29 73.13 30.89 77.74 36.58 77.74C42.26 77.74 46.86 73.13 46.86 67.45C46.86 61.77 42.26 57.16 36.58 57.16ZM91.44 57.16C85.76 57.16 81.15 61.77 81.15 67.45C81.15 73.13 85.76 77.74 91.44 77.74C97.13 77.74 101.73 73.13 101.73 67.45C101.73 61.77 97.13 57.16 91.44 57.16ZM95.16 22.87L32.86 22.87C21.61 22.87 12.19 30.7 9.75 41.2C15.99 34.83 24.67 30.87 34.29 30.87L93.73 30.87C103.34 30.87 112.03 34.83 118.26 41.2C115.83 30.7 106.41 22.87 95.16 22.87Z" fill="#FFFFFF" fill-opacity="1.000000" fill-rule="nonzero"/>
	</g>
</svg>
