<svg width="128.000000" height="128.000000" viewBox="0 0 128 128" fill="none" xmlns="http://www.w3.org/2000/svg" xmlns:xlink="http://www.w3.org/1999/xlink">
	<desc>
			Created with Pixso.
	</desc>
	<defs>
		<clipPath id="clip2_477">
			<rect id="svg" width="128.000000" height="128.000000" fill="white" fill-opacity="0"/>
		</clipPath>
	</defs>
	<g clip-path="url(#clip2_477)">
		<path id="path" d="M72 10.66C72 13.03 70.97 15.16 69.33 16.62L69.33 26.66L96 26.66C96.52 26.66 97.04 26.69 97.56 26.74C98.08 26.79 98.6 26.87 99.12 26.97C99.63 27.07 100.14 27.2 100.64 27.35C101.14 27.5 101.63 27.68 102.12 27.88C102.6 28.08 103.08 28.3 103.54 28.55C104 28.8 104.45 29.07 104.88 29.36C105.32 29.65 105.74 29.96 106.15 30.29C106.55 30.63 106.94 30.98 107.31 31.35C107.68 31.72 108.03 32.11 108.36 32.51C108.7 32.92 109.01 33.34 109.3 33.77C109.59 34.21 109.86 34.66 110.11 35.12C110.35 35.58 110.58 36.05 110.78 36.54C110.98 37.02 111.15 37.52 111.31 38.02C111.46 38.52 111.59 39.03 111.69 39.54C111.79 40.05 111.87 40.57 111.92 41.09C111.97 41.61 112 42.14 112 42.66L112 96C112 96.52 111.97 97.04 111.92 97.56C111.87 98.08 111.79 98.6 111.69 99.12C111.59 99.63 111.46 100.14 111.31 100.64C111.15 101.14 110.98 101.63 110.78 102.12C110.58 102.6 110.35 103.08 110.11 103.54C109.86 104 109.59 104.45 109.3 104.88C109.01 105.32 108.7 105.74 108.36 106.15C108.03 106.55 107.68 106.94 107.31 107.31C106.94 107.68 106.55 108.03 106.15 108.36C105.74 108.7 105.32 109.01 104.88 109.3C104.45 109.59 104 109.86 103.54 110.11C103.08 110.35 102.6 110.58 102.12 110.78C101.63 110.98 101.14 111.15 100.64 111.31C100.14 111.46 99.63 111.59 99.12 111.69C98.6 111.79 98.08 111.87 97.56 111.92C97.04 111.97 96.52 112 96 112L32 112C31.47 112 30.95 111.97 30.43 111.92C29.91 111.87 29.39 111.79 28.87 111.69C28.36 111.59 27.85 111.46 27.35 111.31C26.85 111.15 26.36 110.98 25.87 110.78C25.39 110.58 24.91 110.35 24.45 110.11C23.99 109.86 23.54 109.59 23.11 109.3C22.67 109.01 22.25 108.7 21.84 108.36C21.44 108.03 21.05 107.68 20.68 107.31C20.31 106.94 19.96 106.55 19.63 106.15C19.29 105.74 18.98 105.32 18.69 104.88C18.4 104.45 18.13 104 17.88 103.54C17.64 103.08 17.41 102.6 17.21 102.12C17.01 101.63 16.84 101.14 16.68 100.64C16.53 100.14 16.4 99.63 16.3 99.12C16.2 98.6 16.12 98.08 16.07 97.56C16.02 97.04 16 96.52 16 96L16 42.66C16 42.14 16.02 41.61 16.07 41.09C16.12 40.57 16.2 40.05 16.3 39.54C16.4 39.03 16.53 38.52 16.68 38.02C16.84 37.52 17.01 37.02 17.21 36.54C17.41 36.05 17.64 35.58 17.88 35.12C18.13 34.66 18.4 34.21 18.69 33.77C18.98 33.34 19.29 32.92 19.63 32.51C19.96 32.11 20.31 31.72 20.68 31.35C21.05 30.98 21.44 30.63 21.84 30.29C22.25 29.96 22.67 29.65 23.11 29.36C23.54 29.07 23.99 28.8 24.45 28.55C24.91 28.3 25.39 28.08 25.87 27.88C26.36 27.68 26.85 27.5 27.35 27.35C27.85 27.2 28.36 27.07 28.87 26.97C29.39 26.87 29.91 26.79 30.43 26.74C30.95 26.69 31.47 26.66 32 26.66L58.66 26.66L58.66 16.62C58.41 16.4 58.18 16.17 57.96 15.92C57.74 15.67 57.54 15.4 57.36 15.13C57.17 14.85 57 14.56 56.85 14.27C56.7 13.97 56.57 13.67 56.46 13.35C56.35 13.04 56.26 12.72 56.19 12.4C56.11 12.07 56.06 11.75 56.03 11.41C56 11.08 55.99 10.75 56 10.42C56.01 10.09 56.04 9.76 56.09 9.43C56.14 9.1 56.21 8.78 56.3 8.46C56.4 8.14 56.51 7.83 56.64 7.52C56.77 7.21 56.92 6.92 57.08 6.63C57.25 6.34 57.44 6.07 57.64 5.8C57.84 5.54 58.06 5.29 58.29 5.05C58.52 4.82 58.77 4.59 59.03 4.39C59.29 4.18 59.56 3.99 59.85 3.82C60.13 3.65 60.43 3.49 60.73 3.36C61.03 3.22 61.34 3.11 61.66 3.01C61.98 2.91 62.3 2.84 62.63 2.78C62.96 2.72 63.29 2.69 63.62 2.67C63.95 2.65 64.28 2.66 64.61 2.69C64.94 2.71 65.27 2.76 65.6 2.82C65.92 2.89 66.24 2.98 66.56 3.08C66.87 3.19 67.18 3.32 67.48 3.46C67.78 3.61 68.07 3.77 68.35 3.95C68.63 4.13 68.89 4.33 69.15 4.54C69.4 4.75 69.64 4.98 69.87 5.23C70.09 5.47 70.3 5.73 70.5 6C70.69 6.27 70.87 6.55 71.02 6.84C71.18 7.13 71.32 7.43 71.44 7.74C71.57 8.05 71.67 8.37 71.75 8.69C71.83 9.01 71.89 9.34 71.93 9.67C71.97 10 72 10.33 72 10.66ZM32 37.33C31.64 37.33 31.3 37.36 30.95 37.43C30.61 37.5 30.28 37.6 29.95 37.73C29.63 37.87 29.32 38.03 29.03 38.23C28.74 38.42 28.47 38.64 28.22 38.89C27.98 39.14 27.76 39.41 27.56 39.7C27.37 39.99 27.2 40.3 27.07 40.62C26.93 40.94 26.83 41.28 26.76 41.62C26.7 41.96 26.66 42.31 26.66 42.66L26.66 96C26.66 96.35 26.7 96.69 26.76 97.04C26.83 97.38 26.93 97.71 27.07 98.04C27.2 98.36 27.37 98.67 27.56 98.96C27.76 99.25 27.98 99.52 28.22 99.77C28.47 100.01 28.74 100.24 29.03 100.43C29.32 100.62 29.63 100.79 29.95 100.92C30.28 101.06 30.61 101.16 30.95 101.23C31.3 101.29 31.64 101.33 32 101.33L96 101.33C96.35 101.33 96.69 101.29 97.04 101.23C97.38 101.16 97.71 101.06 98.04 100.92C98.36 100.79 98.67 100.62 98.96 100.43C99.25 100.24 99.52 100.01 99.77 99.77C100.01 99.52 100.24 99.25 100.43 98.96C100.62 98.67 100.79 98.36 100.92 98.04C101.06 97.71 101.16 97.38 101.23 97.04C101.29 96.69 101.33 96.35 101.33 96L101.33 42.66C101.33 42.31 101.29 41.96 101.23 41.62C101.16 41.28 101.06 40.94 100.92 40.62C100.79 40.3 100.62 39.99 100.43 39.7C100.24 39.41 100.01 39.14 99.77 38.89C99.52 38.64 99.25 38.42 98.96 38.23C98.67 38.03 98.36 37.87 98.04 37.73C97.71 37.6 97.38 37.5 97.04 37.43C96.69 37.36 96.35 37.33 96 37.33L32 37.33ZM10.66 53.33L0 53.33L0 85.33L10.66 85.33L10.66 53.33ZM117.33 53.33L128 53.33L128 85.33L117.33 85.33L117.33 53.33ZM48 77.33C48.52 77.33 49.04 77.28 49.56 77.17C50.07 77.07 50.57 76.92 51.06 76.72C51.54 76.52 52 76.27 52.44 75.98C52.88 75.69 53.28 75.36 53.65 74.99C54.02 74.61 54.35 74.21 54.65 73.77C54.94 73.34 55.19 72.88 55.39 72.39C55.59 71.9 55.74 71.4 55.84 70.89C55.94 70.37 56 69.85 56 69.33C56 68.8 55.94 68.28 55.84 67.77C55.74 67.25 55.59 66.75 55.39 66.27C55.19 65.78 54.94 65.32 54.65 64.88C54.35 64.45 54.02 64.04 53.65 63.67C53.28 63.3 52.88 62.97 52.44 62.68C52 62.38 51.54 62.14 51.06 61.94C50.57 61.74 50.07 61.58 49.56 61.48C49.04 61.38 48.52 61.33 48 61.33C47.47 61.33 46.95 61.38 46.43 61.48C45.92 61.58 45.42 61.74 44.93 61.94C44.45 62.14 43.99 62.38 43.55 62.68C43.11 62.97 42.71 63.3 42.34 63.67C41.97 64.04 41.64 64.45 41.34 64.88C41.05 65.32 40.81 65.78 40.6 66.27C40.4 66.75 40.25 67.25 40.15 67.77C40.05 68.28 40 68.8 40 69.33C40 69.85 40.05 70.37 40.15 70.89C40.25 71.4 40.4 71.9 40.6 72.39C40.81 72.88 41.05 73.34 41.34 73.77C41.64 74.21 41.97 74.61 42.34 74.99C42.71 75.36 43.11 75.69 43.55 75.98C43.99 76.27 44.45 76.52 44.93 76.72C45.42 76.92 45.92 77.07 46.43 77.17C46.95 77.28 47.47 77.33 48 77.33ZM80 77.33C80.52 77.33 81.04 77.28 81.56 77.17C82.07 77.07 82.57 76.92 83.06 76.72C83.54 76.52 84 76.27 84.44 75.98C84.88 75.69 85.28 75.36 85.65 74.99C86.02 74.61 86.35 74.21 86.65 73.77C86.94 73.34 87.19 72.88 87.39 72.39C87.59 71.9 87.74 71.4 87.84 70.89C87.94 70.37 88 69.85 88 69.33C88 68.8 87.94 68.28 87.84 67.77C87.74 67.25 87.59 66.75 87.39 66.27C87.19 65.78 86.94 65.32 86.65 64.88C86.35 64.45 86.02 64.04 85.65 63.67C85.28 63.3 84.88 62.97 84.44 62.68C84 62.38 83.54 62.14 83.06 61.94C82.57 61.74 82.07 61.58 81.56 61.48C81.04 61.38 80.52 61.33 80 61.33C79.47 61.33 78.95 61.38 78.43 61.48C77.92 61.58 77.42 61.74 76.93 61.94C76.45 62.14 75.99 62.38 75.55 62.68C75.11 62.97 74.71 63.3 74.34 63.67C73.97 64.04 73.64 64.45 73.34 64.88C73.05 65.32 72.81 65.78 72.6 66.27C72.4 66.75 72.25 67.25 72.15 67.77C72.05 68.28 72 68.8 72 69.33C72 69.85 72.05 70.37 72.15 70.89C72.25 71.4 72.4 71.9 72.6 72.39C72.81 72.88 73.05 73.34 73.34 73.77C73.64 74.21 73.97 74.61 74.34 74.99C74.71 75.36 75.11 75.69 75.55 75.98C75.99 76.27 76.45 76.52 76.93 76.72C77.42 76.92 77.92 77.07 78.43 77.17C78.95 77.28 79.47 77.33 80 77.33Z" fill="#FFFFFF" fill-opacity="1.000000" fill-rule="nonzero"/>
	</g>
</svg>
