<svg width="128.000000" height="127.998779" viewBox="0 0 128 127.999" fill="none" xmlns="http://www.w3.org/2000/svg" xmlns:xlink="http://www.w3.org/1999/xlink">
	<desc>
			Created with Pixso.
	</desc>
	<defs>
		<clipPath id="clip2_488">
			<rect id="吉林大学校徽" width="128.000000" height="127.998726" fill="white" fill-opacity="0"/>
		</clipPath>
	</defs>
	<g clip-path="url(#clip2_488)">
		<path id="path" d="M55.94 110.57C55.5 110.76 55.28 111.23 54.88 111.49C54.61 111.28 54.34 111.09 54.09 110.88C53.84 110.66 53.82 110.51 54.1 110.32C54.5 110.06 54.93 109.84 55.35 109.61C55.42 109.58 55.5 109.55 55.58 109.53C56.31 109.34 56.52 108.78 56.6 108.12C56.7 107.07 56.97 106.07 57.41 105.12C57.65 104.61 58.06 104.29 58.66 104.31C59.01 104.33 59.07 104.38 59.08 104.72C59.09 104.82 59.09 104.92 59.08 105.02C59.01 105.45 59.16 105.77 59.45 106.1C59.74 106.45 60 106.84 60.21 107.25C60.48 107.71 60.46 107.99 60.06 108.36C59.66 108.72 59.26 109.08 58.79 109.29C58.18 109.56 58.03 110.07 57.94 110.59C57.83 111.29 57.83 112.01 57.79 112.71C57.79 112.82 57.8 112.92 57.82 113.03C57.88 113.06 57.91 113.09 57.93 113.08C58.7 113 59.15 113.49 59.59 114.01C59.94 114.42 60.29 114.84 60.65 115.24C61 115.61 61.25 116.03 61.42 116.51C61.57 116.99 61.39 117.36 61.09 117.69C60.86 117.93 60.72 117.92 60.43 117.74C60.04 117.5 59.63 117.27 59.25 117.01C59.07 116.86 58.91 116.7 58.77 116.52C58.54 116.25 58.33 115.95 58.08 115.69C58.03 115.63 57.97 115.59 57.9 115.57C57.82 115.55 57.75 115.56 57.68 115.59C57.61 115.62 57.56 115.67 57.53 115.74C57.5 115.81 57.49 115.88 57.5 115.95C57.5 116.53 57.45 117.1 57.67 117.66C57.87 118.11 57.95 118.58 57.92 119.07C57.85 119.74 57.56 119.89 56.93 119.66C56.74 119.6 56.58 119.49 56.44 119.34C56.3 119.19 56.21 119.02 56.17 118.82C56.12 118.56 56.03 118.31 55.9 118.08C55.6 117.55 55.34 117.02 55.41 116.42C55.32 116.34 55.22 116.3 55.1 116.29C54.99 116.28 54.88 116.3 54.78 116.36C54.4 116.56 54.01 116.76 53.66 117C53.37 117.2 53.07 117.24 52.74 117.12C52.63 116.27 52.59 115.4 52.24 114.59C51.69 114.74 51.58 114.87 51.59 115.37C51.61 116.58 51.65 117.79 51.68 118.99C51.68 119.12 51.66 119.25 51.66 119.39C51.32 119.46 51.11 119.28 50.95 119.08C50.64 118.75 50.48 118.36 50.47 117.92C50.47 117.32 50.49 116.72 50.49 116.12C50.48 115.99 50.46 115.87 50.44 115.74C50.01 115.98 49.63 116.15 49.35 116.5C49.09 116.82 48.75 117 48.33 117.05C48.19 117.08 48.05 117.07 47.92 117C47.79 116.94 47.69 116.85 47.62 116.72C47.27 116.22 47.21 115.65 47.25 115.06C47.25 114.97 47.29 114.9 47.36 114.85C48.15 114.34 48.54 113.52 49.04 112.79C49.61 111.95 50.17 111.12 50.72 110.27C50.89 110.02 51.15 109.79 51.01 109.36L50.44 109.65C50.25 109.75 50.05 109.84 49.87 109.95C49.66 110.09 49.46 110.23 49.27 110.39C48.91 110.7 48.53 110.76 48.14 110.5C47.88 110.32 47.65 110.11 47.46 109.86C47.18 109.46 47.36 109.18 47.84 109.14C48.24 109.09 48.65 109.02 49.04 108.91C49.66 108.74 50.27 108.53 50.9 108.37C51.04 108.34 51.16 108.28 51.26 108.18C51.36 108.08 51.42 107.96 51.44 107.81C51.72 106.69 52.14 105.61 52.67 104.57C53.02 103.93 53.42 103.32 54 102.85C54.31 102.6 54.37 102.6 54.67 102.86C54.97 103.12 55.2 103.43 55.37 103.79C55.54 104.15 55.63 104.53 55.65 104.92C55.75 106.69 54.68 107.9 53.1 108.48C52.9 108.55 52.7 108.63 52.51 108.74C52.05 109.03 51.89 109.5 51.88 110.01C51.85 110.7 51.87 111.41 51.84 112.1C51.83 112.46 51.77 112.81 51.74 113.18C51.73 113.4 51.74 113.63 51.74 113.86C52.06 113.9 52.33 113.8 52.55 113.56C52.77 113.36 52.98 113.24 53.3 113.26C53.47 113.26 53.61 113.2 53.73 113.08C54.45 112.35 55.17 111.61 55.89 110.88C55.95 110.8 56 110.72 56.04 110.64L55.97 110.56L55.94 110.57ZM52.47 107.98C52.77 107.76 52.98 107.62 53.18 107.44C53.83 106.91 54.32 106.26 54.67 105.5C54.77 105.27 54.81 105.04 54.77 104.8C54.74 104.55 54.64 104.34 54.47 104.16C54.3 103.95 54.17 103.94 53.98 104.13C53.85 104.25 53.73 104.39 53.62 104.53C52.97 105.43 52.7 106.49 52.39 107.53C52.37 107.63 52.43 107.74 52.47 107.98ZM50.86 113.35C50.42 113.6 50.02 114.26 50.07 114.66C50.59 114.39 50.84 113.98 50.86 113.35Z" fill="#FFFFFF" fill-opacity="1.000000" fill-rule="evenodd"/>
		<path id="path" d="M96.77 92.77C96.66 92.76 96.54 92.75 96.43 92.75C96.34 92.75 96.25 92.77 96.17 92.81C96.08 92.85 96.01 92.9 95.95 92.97C95.89 93.04 95.85 93.12 95.83 93.21C95.8 93.3 95.8 93.39 95.81 93.48C95.86 93.74 95.84 93.99 95.76 94.24C95.68 94.49 95.55 94.71 95.37 94.9C94.62 95.7 94.35 96.69 94.16 97.73C94.07 98.2 93.96 98.67 94.14 99.14C94.2 99.29 94.27 99.43 94.36 99.64C94.44 99.55 94.51 99.46 94.58 99.36C95.01 98.43 95.44 97.49 95.88 96.56C96.02 96.25 96.24 96.01 96.54 95.83C96.61 95.79 96.7 95.75 96.78 95.72C96.87 95.7 96.96 95.68 97.05 95.67C97.14 95.66 97.23 95.67 97.32 95.68C97.41 95.7 97.5 95.72 97.58 95.76C97.66 95.79 97.74 95.83 97.82 95.89C97.89 95.94 97.96 96 98.02 96.07C98.08 96.13 98.13 96.21 98.17 96.29C98.22 96.37 98.25 96.45 98.27 96.54C98.4 96.97 98.56 97.38 98.76 97.78C99.08 98.4 99.15 99.07 99.22 99.74C99.23 99.94 99.21 100.14 99.2 100.34C99.2 100.83 99.51 101.16 99.99 101.1C100.45 101.06 100.87 100.91 101.09 100.45C101.26 100.11 101.46 99.78 101.62 99.43C102.05 98.55 102.77 98.04 103.69 97.78C103.91 97.72 104.16 97.75 104.49 97.74C104.4 97.92 104.38 98.04 104.31 98.1C103.99 98.4 103.82 98.72 104.03 99.16C104.14 99.4 103.97 99.57 103.82 99.72C103.32 100.21 102.81 100.69 102.31 101.18C102.22 101.27 102.14 101.37 102.02 101.5C102.34 101.88 102.65 102.24 102.96 102.6C103.08 102.76 103.22 102.9 103.36 103.05C104.17 103.92 104.14 104.82 103.36 105.75C102.97 106.22 102.58 106.7 102.18 107.16C101.98 107.4 101.76 107.63 101.54 107.86C101.49 107.93 101.41 107.98 101.32 107.99C101.22 108.01 101.14 107.99 101.06 107.95C100.69 107.8 100.32 107.79 99.94 107.93C99.66 108.03 99.37 108.09 99.07 108.11C98.66 108.12 98.54 107.89 98.76 107.54C98.87 107.36 99 107.19 99.15 107.04C99.71 106.49 100.28 105.95 100.84 105.41C101.2 105.07 101.52 104.7 101.67 104.2C101.81 103.72 101.71 103.31 101.27 102.92C100.99 103.26 100.71 103.61 100.42 103.94C99.98 104.45 99.55 104.99 99.08 105.47C98.69 105.91 98.4 106.4 98.21 106.96C98.15 107.11 98.11 107.27 98.04 107.42C97.93 107.66 97.75 107.82 97.46 107.8C97.2 107.78 96.96 107.8 96.71 107.78C96.4 107.75 96.3 107.64 96.32 107.33C96.33 106.96 96.55 106.67 96.77 106.41C97.6 105.38 98.46 104.37 99.31 103.35C99.49 103.13 99.66 102.91 99.82 102.67C99.95 102.5 100.04 102.3 99.89 102.04C99.69 102.14 99.51 102.25 99.32 102.34C98.89 102.54 98.63 102.41 98.5 101.96C98.46 101.83 98.43 101.7 98.43 101.57C98.42 100.98 98.33 100.39 98.18 99.82C98.05 99.26 98.03 98.68 97.91 98.12C97.84 97.74 97.71 97.39 97.53 97.06C97.2 96.53 96.59 96.56 96.3 97.1C96.15 97.36 96.04 97.64 95.97 97.93C95.85 98.49 95.77 99.06 95.66 99.62C95.63 99.8 95.56 99.97 95.52 100.15C95.39 100.69 95.25 101.23 95.14 101.78C95.07 102.12 95.16 102.4 95.41 102.64C95.5 102.74 95.61 102.82 95.69 102.92C95.85 103.12 95.97 103.34 95.84 103.61C95.79 103.74 95.71 103.84 95.6 103.92C95.49 104 95.37 104.05 95.23 104.05C94.6 104.09 93.97 104.03 93.36 103.87C92.8 103.72 92.6 103.38 92.59 102.81C92.59 102.52 92.47 102.23 92.46 101.94C92.43 100.94 92.15 99.95 92.24 98.93C92.26 98.64 92.07 98.52 91.78 98.61C91.62 98.67 91.47 98.74 91.33 98.82C91.23 98.87 91.14 98.95 91.03 99C90.2 99.36 90.34 99.44 89.58 98.88C89.3 98.68 89 98.5 88.7 98.33C88.38 98.18 88.18 97.93 88.12 97.58C88.01 97.2 87.87 96.83 87.7 96.48C87.54 96.12 87.57 95.93 87.89 95.72C88.05 95.62 88.23 95.57 88.43 95.58C88.63 95.59 88.8 95.66 88.95 95.78C89.12 95.91 89.29 96.08 89.48 96.15C89.65 96.21 89.91 96.22 90.04 96.13C90.14 96.06 90.22 95.96 90.26 95.84C90.3 95.72 90.31 95.6 90.27 95.47C90.04 94.56 90.07 94.46 90.89 94.02C91.51 93.7 91.87 93.15 92.2 92.57C92.31 92.39 92.39 92.19 92.49 91.99C92.76 91.45 93.16 91.06 93.77 90.91C93.88 90.89 94 90.86 94.1 90.81C94.96 90.24 95.91 90.57 96.82 90.53C97.02 90.55 97.2 90.62 97.36 90.74C97.68 90.93 97.72 91.15 97.53 91.48C97.29 91.9 97.05 92.3 96.77 92.76L96.77 92.77ZM92.47 97.68C92.5 97.61 92.52 97.53 92.55 97.46C92.64 96.87 92.74 96.29 92.81 95.7C92.86 95.38 92.7 95.22 92.36 95.19C92.05 95.19 91.74 95.16 91.43 95.12C90.99 95.03 90.76 95.17 90.77 95.63C90.77 95.92 90.88 96.21 90.9 96.5C90.93 96.96 91.21 97.22 91.58 97.39C91.87 97.5 92.17 97.6 92.47 97.68Z" fill="#FFFFFF" fill-opacity="1.000000" fill-rule="evenodd"/>
		<path id="path" d="M77.67 109.23C77.93 109.07 78.12 108.98 78.29 108.85C78.64 108.59 78.98 108.33 79.32 108.07C79.73 107.76 79.74 107.66 79.42 107.28C79.33 107.16 79.25 107.04 79.17 106.92C79.43 106.74 79.72 106.68 80.03 106.76C80.39 106.81 80.75 106.79 81.11 106.71C81.64 106.62 82.18 106.6 82.62 107C82.73 107.11 82.82 107.24 82.91 107.38C82.23 107.72 81.61 108.02 81 108.35C80.26 108.75 79.53 109.17 78.79 109.58C78.65 109.67 78.51 109.76 78.38 109.86C77.86 110.24 77.58 110.71 77.71 111.39C77.82 111.98 77.77 112.59 78.02 113.15C78.14 113.44 78.29 113.69 78.66 113.76C79.82 113.96 80.97 114.2 82.12 114.4C82.35 114.45 82.58 114.45 82.8 114.37C83.86 113.95 84.78 114.29 85.66 114.85C85.89 114.99 86.08 115.17 86.24 115.38C86.55 115.76 86.47 116.02 86.03 116.23C85.92 116.28 85.82 116.33 85.71 116.37C85.55 116.44 85.42 116.53 85.31 116.66C85.2 116.79 85.13 116.94 85.1 117.11C85.09 117.21 85.07 117.3 85.03 117.4C84.89 117.74 84.67 117.85 84.32 117.72C84.11 117.64 83.9 117.64 83.7 117.75C83.37 117.91 83.03 117.98 82.66 117.93C82.3 117.89 81.98 117.75 81.7 117.51C80.91 116.88 80.16 116.2 79.39 115.54C79.09 115.29 78.84 114.98 78.47 114.81C78.3 114.95 78.37 115.09 78.43 115.22C78.6 115.61 78.65 116.02 78.57 116.44C78.54 116.63 78.58 116.83 78.56 117.03C78.55 117.39 78.49 117.75 78.41 118.1C78.18 118.84 77.29 119.19 76.58 118.84C76.3 118.69 76 118.63 75.69 118.66C75.47 118.67 75.27 118.62 75.08 118.51C74.54 118.23 74.04 117.86 73.39 117.87C73.32 117.87 73.25 117.79 73.18 117.75C73.02 117.65 72.84 117.57 72.66 117.51C72.27 117.4 72.07 117.17 72.2 116.79C72.31 116.53 72.46 116.3 72.64 116.09C72.75 115.98 72.87 115.9 73.02 115.85C73.95 115.51 74.24 114.7 74.45 113.85C74.53 113.53 74.51 113.2 74.54 112.87C74.57 112.5 74.28 112.42 74.01 112.6C73.84 112.7 73.68 112.82 73.52 112.94C73.41 113.01 73.31 113.1 73.19 113.17C72.92 113.34 72.84 113.33 72.69 113.05C72.5 112.73 72.34 112.41 72.19 112.08C72.05 111.75 72.12 111.6 72.44 111.45C72.85 111.26 73.26 111.08 73.67 110.91C74.42 110.6 74.69 110.16 74.62 109.38C74.48 108.05 74.29 106.74 74.25 105.41C74.21 104.2 74 103.01 73.99 101.8C74.01 101.59 74.05 101.38 74.14 101.18C74.21 101 74.32 100.83 74.41 100.65C74.44 100.59 74.48 100.53 74.53 100.47C74.58 100.42 74.64 100.37 74.7 100.33C74.76 100.28 74.82 100.25 74.89 100.23C74.96 100.2 75.03 100.19 75.11 100.18C75.18 100.17 75.25 100.18 75.33 100.19C75.4 100.2 75.47 100.22 75.54 100.25C75.6 100.28 75.67 100.32 75.72 100.37C75.78 100.41 75.83 100.47 75.87 100.53C76.03 100.74 76.12 100.98 76.14 101.25C76.14 101.89 76.3 102.48 76.44 103.09C76.57 103.61 76.54 104.18 76.63 104.71C76.76 105.42 76.94 106.13 77.1 106.83C77.2 107.25 77.3 107.66 77.4 108.08C77.48 108.43 77.56 108.78 77.67 109.23Z" fill="#FFFFFF" fill-opacity="1.000000" fill-rule="evenodd"/>
		<path id="path" d="M37.89 93.11C38.13 93.29 38.28 93.39 38.41 93.5C38.58 93.64 38.74 93.78 38.9 93.93C39.21 94.2 39.5 94.38 39.91 94.09C40.09 93.96 40.33 94.02 40.52 94.17C40.81 94.39 41.1 94.59 41.48 94.65C41.77 94.7 41.84 94.98 41.67 95.23C41.42 95.6 41.15 95.96 40.91 96.34C40.64 96.77 40.71 96.89 41.2 97.01C41.82 97.16 42.39 97.41 42.92 97.77C43.02 97.85 43.11 97.94 43.19 98.04C42.92 98.49 42.59 98.74 42.08 98.83C41.44 98.94 40.79 98.89 40.19 99.2C40.08 99.23 39.97 99.23 39.86 99.2C39.58 99.14 39.31 99.1 39.03 99.07C38.6 99.05 38.6 99.07 38.3 99.52C38.66 100.24 39.13 100.89 39.71 101.46C39.85 101.57 39.97 101.7 40.09 101.84C40.23 102 40.19 102.17 39.99 102.24C39.51 102.4 39.02 102.54 38.53 102.67C38.42 102.7 38.28 102.62 38.14 102.61C37.81 102.55 37.47 102.52 37.13 102.52C36.42 102.55 35.74 102.5 35.08 102.23C34.44 101.98 33.79 101.96 33.13 102.16C32.99 102.2 32.84 102.22 32.69 102.23C32.26 102.25 32.15 102.13 32.19 101.68C32.21 101.39 32.08 101.2 31.77 101.1C31.36 100.97 30.94 100.88 30.53 100.76C30.37 100.71 30.22 100.65 30.07 100.58C29.93 100.52 29.82 100.42 29.73 100.29C29.65 100.16 29.62 100.02 29.62 99.86C29.61 99.36 29.59 98.87 29.58 98.37C29.57 97.87 30.16 97.5 30.6 97.72C31.28 98.06 31.95 98.41 32.62 98.76C32.84 98.88 33 98.86 33.15 98.68C33.5 98.3 33.72 97.87 33.81 97.36C33.87 97.04 33.67 96.8 33.47 96.58C33.07 96.15 32.76 95.66 32.54 95.12C32.41 94.77 32.27 94.42 32.41 94.02C32.58 93.59 33 93.34 33.43 93.49C33.9 93.65 34.36 93.83 34.67 94.27C34.81 94.44 34.97 94.58 35.15 94.69C35.66 95.05 36.03 95.03 36.49 94.62C36.86 94.28 37.21 93.93 37.56 93.57C37.68 93.43 37.79 93.27 37.89 93.11Z" fill="#FFFFFF" fill-opacity="1.000000" fill-rule="evenodd"/>
		<path id="path" d="M24.81 56.19C24.71 56.62 24.63 57.03 24.52 57.42C24.48 57.61 24.34 57.59 24.17 57.55C23.61 57.4 12.27 54.64 11.17 54.36C10.88 54.29 10.83 54.22 10.9 53.95C10.98 53.63 11.08 53.31 11.16 52.99C11.21 52.8 11.33 52.73 11.52 52.72C12.27 52.67 20.67 51.83 20.67 51.83C20.67 51.83 12.52 49.74 11.99 49.62C12.04 49.16 12.16 48.72 12.33 48.3C12.35 48.24 12.5 48.19 12.57 48.21C13.53 48.45 25.08 51.28 25.94 51.51C25.9 51.73 25.73 52.49 25.7 52.65C25.64 52.96 25.57 53.03 25.25 53.07C24.69 53.12 16.32 54.01 16.32 54.01L24.81 56.19Z" fill="#FFFFFF" fill-opacity="1.000000" fill-rule="evenodd"/>
		<path id="path" d="M33.81 37.83C33.51 38.16 33.24 38.46 32.96 38.76C32.82 38.9 32.7 38.82 32.58 38.7C32.16 38.3 23.64 30.31 22.82 29.53C22.61 29.33 22.6 29.24 22.8 29.03C23.02 28.79 23.27 28.57 23.49 28.33C23.63 28.18 23.77 28.19 23.94 28.27C24.62 28.6 32.35 32 32.35 32C32.35 32 26.28 26.16 25.88 25.8C26.15 25.43 26.46 25.1 26.82 24.82C26.87 24.78 27.02 24.82 27.07 24.86C27.8 25.54 36.45 33.69 37.09 34.3C36.94 34.48 36.43 35.06 36.32 35.18C36.12 35.42 36.02 35.45 35.72 35.32C35.21 35.09 27.49 31.75 27.49 31.75L33.81 37.83Z" fill="#FFFFFF" fill-opacity="1.000000" fill-rule="evenodd"/>
		<path id="path" d="M103.74 64.64C103.76 64.2 103.77 63.79 103.8 63.38C103.81 63.19 103.95 63.18 104.13 63.19C104.7 63.24 116.35 63.93 117.49 64.01C117.78 64.03 117.84 64.09 117.83 64.37C117.81 64.7 117.76 65.03 117.74 65.36C117.74 65.44 117.71 65.52 117.65 65.58C117.59 65.64 117.52 65.68 117.43 65.69C116.7 65.87 108.59 68.2 108.59 68.2C108.59 68.2 116.98 68.8 117.52 68.83C117.55 69.29 117.52 69.74 117.43 70.19C117.38 70.27 117.3 70.31 117.2 70.32C116.21 70.26 104.35 69.52 103.46 69.46C103.46 69.23 103.49 68.46 103.49 68.29C103.49 67.98 103.55 67.89 103.87 67.8C104.4 67.65 112.48 65.29 112.48 65.29L103.74 64.64Z" fill="#FFFFFF" fill-opacity="1.000000" fill-rule="evenodd"/>
		<path id="path" d="M115.16 47.36C115.16 47.36 115.44 48.19 115.55 48.55C115.63 48.8 115.52 48.95 115.19 49.03C114.59 49.2 110.28 50.29 110.28 50.29L111.07 53.32L115.96 52.05C116.28 51.97 116.39 52.01 116.5 52.32C116.59 52.63 116.67 52.95 116.74 53.28C116.78 53.45 116.68 53.56 116.51 53.6C115.73 53.8 104.04 56.86 103.46 57.03C103.27 57.08 103.18 57.01 103.13 56.83C103.06 56.51 102.97 56.19 102.89 55.87C102.82 55.57 102.86 55.49 103.16 55.41C104.02 55.17 108.72 53.93 108.72 53.93L107.92 50.93C107.92 50.93 102.98 52.2 102.52 52.33C102.11 52.44 101.99 52.36 101.88 51.96C101.79 51.64 101.72 51.32 101.62 50.94C101.86 50.85 115.16 47.36 115.16 47.36Z" fill="#FFFFFF" fill-opacity="1.000000" fill-rule="evenodd"/>
		<path id="path" d="M47.12 15.37C47.42 16.31 47.72 17.23 48.03 18.2C49.31 17.88 50.49 17.41 51.76 17.06C52 17.81 52.23 18.53 52.48 19.3C52.31 19.38 48.78 20.59 48.78 20.59L49.9 24.09C49.9 24.09 52.71 23.21 53.66 22.89C53.87 22.82 54.05 22.85 54.12 23.06C54.34 23.71 54.53 24.38 54.72 25.04C54.72 25.05 54.71 25.07 54.68 25.13C54.09 25.32 50.64 26.43 49.53 26.78C49.15 26.91 49.08 26.87 48.96 26.48C48.19 24.06 47.42 21.63 46.65 19.2C46.12 17.52 44.99 13.99 44.97 13.91C44.88 13.57 44.92 13.47 45.27 13.36C45.72 13.21 48.84 12.23 49.95 11.88C50.36 11.76 50.42 11.78 50.55 12.19C50.72 12.7 50.88 13.2 51.04 13.7C51.13 14.01 51.09 14.06 50.79 14.16C49.64 14.52 47.2 15.32 47.12 15.37Z" fill="#FFFFFF" fill-opacity="1.000000" fill-rule="evenodd"/>
		<path id="path" d="M101.18 78.44C101.34 77.93 101.47 77.48 101.63 77.04C101.7 76.93 101.81 76.88 101.94 76.87L104.9 76.99C104.9 76.99 105.2 75.93 105.36 75.39C105.43 75.07 105.52 74.76 105.64 74.45C105.75 74.19 105.68 74.04 105.45 73.92C105.06 73.72 103.55 72.96 103.2 72.78C102.84 72.6 102.82 72.55 102.94 72.16C103.01 71.92 103.27 71.13 103.36 70.95C104.08 71.33 115.21 77.19 115.66 77.44C116 77.63 116 77.65 115.89 78.01C115.79 78.34 115.63 78.92 115.63 78.92C115.63 78.92 115.55 79.32 115.16 79.32C114.8 79.26 101.78 78.52 101.18 78.44ZM107.38 77.2L112.21 77.5L107.97 75.23L107.38 77.2Z" fill="#FFFFFF" fill-opacity="1.000000" fill-rule="evenodd"/>
		<path id="path" d="M36.04 17.85C36.6 18.51 41.98 25.08 42.58 25.64C42.61 25.63 42.64 25.61 42.66 25.59C42.51 25.12 41.3 21.5 40.86 20.15C40.44 18.91 40.04 17.67 39.62 16.43C39.47 15.99 39.5 15.91 39.9 15.67C40.13 15.54 40.36 15.42 40.6 15.29C40.91 15.12 40.97 15.15 41.08 15.49C41.43 16.59 41.77 17.7 42.12 18.81C42.62 20.38 44.64 26.74 45.16 28.35C45.28 28.74 45.28 28.77 44.91 28.99C44.63 29.15 44.34 29.31 44.05 29.48C43.98 29.54 43.89 29.56 43.8 29.55C43.7 29.53 43.63 29.48 43.58 29.4C42.77 28.41 34.97 19.19 34.74 18.91C34.58 18.72 34.59 18.61 34.82 18.48C35.2 18.28 35.59 18.08 36.04 17.85Z" fill="#FFFFFF" fill-opacity="1.000000" fill-rule="evenodd"/>
		<path id="path" d="M90.71 17.22C90.81 17.23 90.86 17.22 90.9 17.25C91.3 17.51 91.69 17.79 92.09 18.05C92.27 18.17 92.3 18.31 92.24 18.52C91.78 20.12 90.88 23.49 90.88 23.63C90.99 23.57 93.73 21.47 95.02 20.46C95.17 20.34 95.29 20.2 95.5 20.34C95.89 20.6 96.3 20.87 96.69 21.14C96.73 21.16 96.74 21.22 96.78 21.33C96.63 21.44 92.25 24.68 90.24 26.21C89.92 26.46 89.68 26.82 89.45 27.16C88.57 28.45 86.73 31.19 86.63 31.31C86.25 31.05 85.88 30.8 85.52 30.54C85.35 30.42 85.39 30.28 85.5 30.12C86.43 28.75 87.35 27.36 88.28 26C88.51 25.67 88.67 25.31 88.77 24.92C89.07 23.69 90.36 18.58 90.71 17.22Z" fill="#FFFFFF" fill-opacity="1.000000" fill-rule="evenodd"/>
		<path id="path" d="M35.37 104.96C35.16 105.29 34.9 105.56 34.58 105.77C34.25 105.99 33.9 106.12 33.52 106.18C33.04 106.26 32.57 106.4 32.1 106.51C32.09 106.55 32.08 106.59 32.08 106.63C32.2 106.73 32.32 106.81 32.46 106.89C32.9 107.11 33.35 107.32 33.79 107.55C33.97 107.64 34.14 107.74 34.3 107.86C34.61 108.08 34.59 108.2 34.25 108.38C34.04 108.49 33.83 108.6 33.64 108.72C33.4 108.88 33.23 109.07 33.24 109.41C33.24 109.85 32.96 109.99 32.57 109.8C32.02 109.52 31.45 109.29 30.93 108.96C30.39 108.62 29.89 108.2 29.38 107.82C29.24 107.72 29.1 107.63 28.97 107.53C28.85 107.44 28.76 107.33 28.69 107.2C28.62 107.07 28.58 106.94 28.58 106.79C28.57 106.64 28.6 106.5 28.66 106.37C28.72 106.23 28.8 106.12 28.92 106.02C28.98 105.95 29.06 105.89 29.15 105.85C29.99 105.56 30.81 105.13 31.74 105.52C32.01 105.63 32.25 105.5 32.51 105.43C33.1 105.25 33.26 105.18 33.62 104.84C33.26 104.53 32.83 104.38 32.41 104.22C31.77 103.97 31.1 104.04 30.44 104.03C30.14 104.03 29.85 104.03 29.55 104.03C29.08 104.02 28.77 104.25 28.56 104.64C28.47 104.82 28.39 105 28.34 105.19C28.15 105.83 27.79 106.36 27.28 106.78C27.06 106.98 26.81 107.12 26.51 107C26.14 106.85 25.91 106.59 25.81 106.21C25.8 106.09 25.81 105.98 25.87 105.88C26.12 105.28 26.16 104.66 25.98 104.03C25.87 103.67 26.28 103.19 26.72 103.14C27.52 103.07 28.2 102.72 28.82 102.23C29.01 102.09 29.18 101.93 29.37 101.8C29.79 101.51 30.21 101.71 30.25 102.21C30.29 102.6 30.33 102.65 30.71 102.71C31.47 102.86 32.23 102.99 32.98 103.15C33.18 103.19 33.36 103.26 33.52 103.38C34.12 103.83 34.69 104.31 35.27 104.77C35.31 104.83 35.34 104.9 35.37 104.96Z" fill="#FFFFFF" fill-opacity="1.000000" fill-rule="evenodd"/>
		<path id="path" d="M84.54 16.85C84.01 18.12 81.18 24.89 80.27 27.07C80.06 27.56 79.98 27.58 79.48 27.36C79.2 27.23 78.91 27.1 78.58 26.97C78.67 26.7 81.55 19.81 82.9 16.61C83.04 16.27 83.01 16.2 82.66 16.05C82.2 15.86 81.74 15.68 81.29 15.47C80.95 15.31 80.94 15.26 81.07 14.94C81.26 14.46 81.45 13.99 81.66 13.52C81.84 13.12 81.88 13.1 82.3 13.27C83.38 13.72 86.61 15.09 87.14 15.32C87.63 15.52 87.62 15.52 87.41 15.98C87.23 16.41 87.06 16.84 86.88 17.27C86.7 17.7 86.66 17.72 86.22 17.55C85.68 17.32 85.13 17.09 84.54 16.85Z" fill="#FFFFFF" fill-opacity="1.000000" fill-rule="evenodd"/>
		<path id="path" d="M26.33 76.63C26.35 77.5 25.85 78.03 25.3 78.48C24.75 78.93 23.07 79.65 22.88 79.71C22.53 79.84 22.51 79.83 22.33 79.52C22.19 79.3 22.07 79.06 21.95 78.82C21.77 78.48 21.81 78.42 22.15 78.28C22.49 78.14 22.85 77.98 23.2 77.82C23.33 77.76 24.53 77.26 24.3 76.56C24.03 75.74 22.78 76.23 22.64 76.27C21.18 76.69 13.11 79.13 12.73 79.25C12.28 79.39 12.28 79.39 12.14 78.96C12.06 78.71 11.97 78.46 11.88 78.21C11.79 77.92 11.82 77.82 12.12 77.73C12.87 77.49 20.87 75.04 21.89 74.76C22.68 74.54 23.56 74.36 24.36 74.44C26.27 74.85 26.32 76.53 26.33 76.63Z" fill="#FFFFFF" fill-opacity="1.000000" fill-rule="evenodd"/>
		<path id="path" d="M62.38 47.65C62.28 47.61 62.19 47.58 62.08 47.56C56.89 47.56 46.7 47.56 46.7 47.56C46.7 47.56 46.7 61.59 46.7 62.82C46.7 63.07 46.54 63.17 46.3 63.16C45.75 63.13 44.91 63.11 44.37 63.06C44.09 63.06 44.09 62.62 44.09 62.52C44.11 56.83 44.08 51.14 44.09 45.45C44.09 45.36 44.09 45.28 44.09 45.19C44.09 44.97 44.22 44.87 44.44 44.88C44.64 44.88 44.84 44.88 45.04 44.88L83.53 44.88C84.06 44.88 84.08 44.9 84.08 45.44L84.08 55.95C84.08 56.03 84.08 56.11 84.08 56.2C84.09 56.24 84.08 56.28 84.07 56.32C84.06 56.36 84.04 56.39 84.01 56.43C83.98 56.46 83.94 56.48 83.9 56.49C83.86 56.51 83.82 56.51 83.78 56.51C83.13 56.51 82.48 56.51 81.84 56.51C81.63 56.51 81.54 56.39 81.54 56.2C81.54 56.1 81.54 56 81.54 55.9C81.54 53.29 81.54 50.69 81.54 48.08C81.54 47.56 81.53 47.55 81.01 47.55L65.53 47.55C65.02 47.55 65 47.57 65 48.08C65 53.08 65 58.08 65 63.07C65 63.57 65 63.57 64.5 63.57C63.97 63.57 63.44 63.57 62.91 63.57C62.4 63.57 62.4 63.57 62.4 63.03L62.4 61.5C62.4 57.02 62.4 52.54 62.4 48.05C62.4 47.93 62.38 47.8 62.38 47.65Z" fill="#FFFFFF" fill-opacity="1.000000" fill-rule="evenodd"/>
		<path id="path" d="M37.81 62.37C38.08 62.52 38.29 62.67 38.53 62.79C39.07 63.06 39.64 63.24 40.25 63.32C40.85 63.41 41.45 63.39 42.05 63.28C42.39 63.23 42.73 63.16 43.07 63.1C43.34 63.05 43.48 63.21 43.64 63.4C44.14 64 44.62 64.62 45.17 65.17C46.17 66.19 47.37 66.96 48.64 67.63C49.73 68.23 50.87 68.72 52.05 69.11C53.23 69.47 54.44 69.6 55.67 69.48C56.2 69.44 56.73 69.23 57.23 69.02C59.48 68.05 61.51 66.71 63.5 65.31C65.32 64.03 67.09 62.7 68.87 61.37C69.69 60.75 70.48 60.1 71.26 59.44C71.85 58.95 72.48 58.67 73.26 58.7C73.37 58.7 73.48 58.72 73.59 58.75C73.7 58.77 73.81 58.81 73.91 58.87C74.01 58.92 74.11 58.98 74.19 59.05C74.28 59.12 74.36 59.2 74.43 59.29C74.51 59.37 74.57 59.47 74.62 59.57C74.67 59.67 74.71 59.78 74.74 59.89C74.77 59.99 74.79 60.11 74.79 60.22C74.8 60.33 74.79 60.45 74.77 60.56C74.73 60.72 74.65 60.86 74.53 60.98C72.96 62.62 66.47 69.48 64.77 71.25C64.08 71.97 63.38 72.67 62.67 73.38C62.21 73.85 61.6 74.11 61 74.33C59.98 74.68 58.94 74.8 57.87 74.66C56.72 74.54 55.65 74.19 54.65 73.61C52.09 72.11 49.49 70.68 46.93 69.19C44.01 67.48 41.18 65.63 38.45 63.63C38.23 63.46 38.02 63.27 37.84 63.06C37.67 62.87 37.63 62.65 37.81 62.37Z" fill="#FFFFFF" fill-opacity="1.000000" fill-rule="evenodd"/>
		<path id="path" d="M65 83.87L62.4 83.87C62.4 83.87 62.4 79.77 62.4 77.91C62.4 77.47 62.43 77.44 62.89 77.44C63.43 77.44 63.98 77.44 64.53 77.44C64.99 77.44 65 77.45 65 77.91C65 79.55 65 83.87 65 83.87Z" fill="#FFFFFF" fill-opacity="1.000000" fill-rule="evenodd"/>
		<path id="path" d="M100.1 32.31C100.1 32.45 100.09 32.59 100.06 32.73C100.04 32.87 99.99 33 99.94 33.13C99.89 33.26 99.82 33.39 99.74 33.5C99.66 33.62 99.57 33.73 99.48 33.83C99.38 33.93 99.27 34.02 99.15 34.1C99.03 34.17 98.91 34.24 98.78 34.3C98.65 34.35 98.51 34.39 98.38 34.42C98.24 34.44 98.1 34.46 97.96 34.46C97.82 34.46 97.68 34.44 97.54 34.42C97.4 34.39 97.27 34.35 97.14 34.3C97 34.24 96.88 34.17 96.76 34.1C96.65 34.02 96.54 33.93 96.44 33.83C96.34 33.73 96.25 33.62 96.17 33.5C96.09 33.39 96.03 33.26 95.97 33.13C95.92 33 95.88 32.87 95.85 32.73C95.82 32.59 95.81 32.45 95.81 32.31C95.81 32.17 95.82 32.03 95.85 31.89C95.88 31.75 95.92 31.62 95.97 31.49C96.03 31.36 96.09 31.24 96.17 31.12C96.25 31 96.34 30.89 96.44 30.79C96.54 30.69 96.65 30.6 96.76 30.53C96.88 30.45 97 30.38 97.14 30.33C97.27 30.27 97.4 30.23 97.54 30.21C97.68 30.18 97.82 30.16 97.96 30.16C98.1 30.16 98.24 30.18 98.38 30.21C98.51 30.23 98.65 30.27 98.78 30.33C98.91 30.38 99.03 30.45 99.15 30.53C99.27 30.6 99.38 30.69 99.48 30.79C99.58 30.89 99.66 31 99.74 31.12C99.82 31.24 99.89 31.36 99.94 31.49C99.99 31.62 100.04 31.75 100.06 31.89C100.09 32.03 100.1 32.17 100.1 32.31Z" fill="#FFFFFF" fill-opacity="1.000000" fill-rule="evenodd"/>
		<path id="path" d="M83.53 73.61L82.08 73.61C81.49 73.61 81.53 74.31 81.53 74.31C81.16 83.56 73.45 90.78 64.07 90.78C54.31 90.78 46.4 82.89 46.4 73.16C46.4 72.99 46.4 71.04 46.4 70.67C46.41 70.58 46.38 70.49 46.31 70.42C46.24 70.35 46.15 70.32 46.05 70.33L44.45 70.33C44.3 70.35 44.08 70.48 44.08 71L44.08 73.16C44.08 84.18 53.02 93.12 64.07 93.12C74.8 93.12 83.54 84.69 84.05 74.12C84.05 73.62 83.53 73.61 83.53 73.61Z" fill="#FFFFFF" fill-opacity="1.000000" fill-rule="evenodd"/>
		<path id="path" d="M64 0C28.65 0 0 28.65 0 64C0 99.34 28.65 127.99 64 127.99C99.34 127.99 128 99.34 128 63.99C128 28.65 99.34 0 64 0ZM64 123.66C31.04 123.66 4.33 96.95 4.33 63.99C4.33 31.04 31.04 4.33 64 4.33C96.95 4.33 123.66 31.04 123.66 63.99C123.66 96.95 96.95 123.66 64 123.66Z" fill="#FFFFFF" fill-opacity="1.000000" fill-rule="nonzero"/>
		<path id="path" d="M64 27.86C44.04 27.86 27.86 44.04 27.86 63.99C27.86 83.95 44.04 100.13 64 100.13C83.95 100.13 100.13 83.95 100.13 63.99C100.13 44.04 83.95 27.86 64 27.86ZM64 96.24C46.18 96.24 31.75 81.81 31.75 63.99C31.75 46.18 46.18 31.75 64 31.75C81.81 31.75 96.24 46.18 96.24 63.99C96.24 81.8 81.81 96.24 64 96.24Z" fill="#FFFFFF" fill-opacity="1.000000" fill-rule="nonzero"/>
		<path id="path" d="M71.32 10.96C70.88 10.41 70.24 10.11 69.41 10.04C67.51 9.91 66.45 11.13 66.25 13.66C66.06 16.22 66.92 17.64 68.82 17.91C70.03 18.05 70.57 18.83 70.47 20.28C70.37 21.73 69.72 22.4 68.5 22.32C67.94 22.27 67.52 22.08 67.26 21.74C66.94 21.34 66.81 20.72 66.87 19.89L66.88 19.78L65.5 19.68L65.49 19.78C65.36 21.4 65.61 22.61 66.22 23.38C66.7 23.99 67.42 24.33 68.35 24.4C68.49 24.41 68.63 24.41 68.78 24.41C70.63 24.35 71.69 22.95 71.92 20.25C72.07 17.49 71.09 16.01 69 15.86C67.99 15.67 67.55 14.96 67.65 13.67C67.74 12.51 68.19 11.93 69.03 11.91C69.11 11.9 69.2 11.91 69.28 11.92C69.72 11.94 70.05 12.09 70.27 12.36C70.56 12.72 70.67 13.29 70.62 14.07L70.62 14.18L71.99 14.28L72 14.17C72.1 12.72 71.86 11.64 71.32 10.96Z" fill="#FFFFFF" fill-opacity="1.000000" fill-rule="nonzero"/>
		<path id="path" d="M24.81 71.38C24.82 71.45 24.8 71.51 24.76 71.57C24.72 71.62 24.67 71.66 24.6 71.67L11.19 74C11.12 74.01 11.06 74 11.01 73.96C10.95 73.92 10.92 73.87 10.91 73.8L10.73 72.76C10.72 72.69 10.73 72.63 10.77 72.57C10.81 72.52 10.87 72.48 10.93 72.47L24.35 70.14C24.42 70.13 24.48 70.14 24.54 70.18C24.59 70.22 24.62 70.28 24.64 70.34L24.81 71.38Z" fill="#FFFFFF" fill-opacity="1.000000" fill-rule="evenodd"/>
		<path id="path" d="M24.23 60.78C24.23 60.85 24.2 60.9 24.15 60.94C24.09 60.99 24.03 61.01 23.97 61L10.4 59.82C10.33 59.81 10.27 59.78 10.23 59.73C10.19 59.67 10.17 59.61 10.17 59.54L10.27 58.49C10.28 58.43 10.31 58.37 10.36 58.33C10.42 58.28 10.48 58.26 10.54 58.27L24.11 59.45C24.18 59.46 24.23 59.49 24.28 59.54C24.32 59.6 24.34 59.66 24.33 59.72L24.23 60.78Z" fill="#FFFFFF" fill-opacity="1.000000" fill-rule="evenodd"/>
		<path id="path" d="M39.24 32.78C39.19 32.82 39.13 32.83 39.06 32.82C38.99 32.81 38.94 32.78 38.89 32.73L30.56 21.96C30.52 21.9 30.51 21.84 30.51 21.77C30.52 21.71 30.55 21.65 30.61 21.61L31.45 20.97C31.5 20.93 31.56 20.92 31.63 20.93C31.7 20.93 31.75 20.97 31.8 21.02L40.13 31.79C40.17 31.85 40.18 31.91 40.17 31.97C40.17 32.04 40.13 32.1 40.08 32.14L39.24 32.78Z" fill="#FFFFFF" fill-opacity="1.000000" fill-rule="evenodd"/>
		<path id="path" d="M73.32 25.34C73.25 25.32 73.2 25.28 73.17 25.22C73.13 25.16 73.13 25.1 73.14 25.03L76.6 11.86C76.62 11.79 76.66 11.74 76.72 11.71C76.78 11.67 76.84 11.67 76.91 11.68L77.93 11.96C77.99 11.98 78.04 12.02 78.08 12.07C78.11 12.13 78.12 12.2 78.1 12.26L74.64 25.43C74.62 25.5 74.58 25.55 74.52 25.58C74.46 25.62 74.4 25.63 74.34 25.61L73.32 25.34Z" fill="#FFFFFF" fill-opacity="1.000000" fill-rule="evenodd"/>
		<path id="path" d="M103.44 59.57C103.43 59.5 103.45 59.44 103.5 59.38C103.54 59.33 103.6 59.3 103.67 59.29L117.22 58.01C117.29 58 117.35 58.02 117.4 58.07C117.45 58.11 117.48 58.17 117.49 58.23L117.58 59.28C117.59 59.35 117.57 59.41 117.52 59.46C117.48 59.51 117.43 59.54 117.36 59.55L103.8 60.84C103.73 60.85 103.67 60.83 103.62 60.78C103.57 60.74 103.54 60.68 103.53 60.62L103.44 59.57Z" fill="#FFFFFF" fill-opacity="1.000000" fill-rule="evenodd"/>
		<path id="path" d="M24.19 67.94C24.19 68 24.17 68.06 24.13 68.11C24.08 68.16 24.02 68.19 23.96 68.19L10.56 68.7C10.5 68.7 10.44 68.68 10.39 68.63C10.34 68.58 10.31 68.53 10.31 68.46L10.28 67.4C10.28 67.34 10.3 67.28 10.34 67.23C10.39 67.18 10.45 67.15 10.51 67.15L23.9 66.64C23.97 66.64 24.03 66.66 24.08 66.71C24.13 66.76 24.16 66.81 24.16 66.88L24.19 67.94Z" fill="#FFFFFF" fill-opacity="1.000000" fill-rule="evenodd"/>
		<path id="path" d="M24.18 67.81C24.16 67.06 24.05 63.82 24.01 62.94C24.02 62.9 24.01 62.85 24 62.81C23.98 62.76 23.96 62.73 23.92 62.69C23.89 62.66 23.85 62.64 23.81 62.63C23.76 62.61 23.72 62.61 23.67 62.62C23.09 62.63 22.51 62.65 21.93 62.68C21.65 62.69 21.61 62.75 21.63 63.06C21.64 63.32 21.76 68.26 21.76 68.26C22.57 68.22 23.37 68.11 24.17 67.94L24.18 67.81Z" fill="#FFFFFF" fill-opacity="1.000000" fill-rule="evenodd"/>
		<path id="path" d="M28.98 39.44C28.11 38.74 21.23 34.51 19.74 33.61C19.47 33.45 19.37 33.56 19.35 33.6L18.62 34.78C18.62 34.78 27.12 40.08 27.63 40.49C27.96 40.76 28.35 41.04 28.36 41.57C28.38 42.25 27.74 43.2 26.82 43C26.23 42.88 25.68 42.66 25.17 42.35C23.01 41.04 17.04 37.44 17.04 37.44C17.04 37.44 16.52 38.23 16.31 38.61C16.21 38.78 16.34 38.83 16.4 38.91C16.48 39 19.74 41 21.26 41.9C22.65 42.72 24.04 43.51 25.45 44.29C28.07 45.63 29.77 43.96 30.14 43.15C30.31 42.79 31.03 41.1 28.98 39.44Z" fill="#FFFFFF" fill-opacity="1.000000" fill-rule="evenodd"/>
		<path id="line" d="" fill="#FFFFFF" fill-opacity="1.000000" fill-rule="nonzero"/>
		<path id="path" d="M63.5 23.55C62.9 22.29 62.3 21.04 61.7 19.79C61.41 19.16 61 18.61 60.49 18.14C63.76 16.87 63.32 11.15 59.84 10.45C59.24 10.32 58.73 10.36 58.12 10.4C57.31 10.45 56.51 10.56 55.71 10.63C55.36 10.66 55.3 10.68 55.32 11.04C55.33 11.45 56.59 24.13 56.61 24.27C56.64 24.49 56.76 24.65 57 24.65C57.41 24.65 57.83 24.66 58.2 24.42C58.22 24.36 58.23 24.29 58.23 24.22C58.14 23.31 57.72 18.77 57.72 18.77C57.72 18.77 58.86 18.22 59.31 19.27C59.4 19.41 61.34 23.25 61.66 23.87C61.74 24.03 61.88 24.13 62.06 24.16L63.15 24.08C63.15 24.08 63.66 23.92 63.5 23.55ZM59.41 16.28C59.16 16.3 57.89 16.45 57.49 16.49C57.43 16.23 57.22 13.26 57.17 13.02C57.11 12.78 57.22 12.68 57.42 12.63C57.52 12.61 58.91 12.37 59.73 12.55C59.94 12.62 60.12 12.73 60.29 12.88C60.69 13.23 60.91 13.67 60.94 14.21C60.97 14.68 60.86 15.1 60.6 15.49C60.31 15.92 59.92 16.18 59.41 16.28Z" fill="#FFFFFF" fill-opacity="1.000000" fill-rule="nonzero"/>
		<path id="path" d="M112.06 39.45C112.01 39.37 111.96 39.3 111.9 39.23C110.57 37.79 107.19 38.57 107.19 38.57C105.34 39.09 103.62 39.9 102.04 40.99C101.23 41.54 100.47 42.15 99.9 42.96C99.51 43.55 98.66 45.08 99.47 46.52C99.68 46.87 100.65 48.05 103.42 47.55C103.7 47.5 103.98 47.43 104.26 47.35C104.73 47.22 104.81 47.17 104.85 46.67C104.86 46.56 104.92 45.93 104.91 45.71C104.91 45.5 104.77 45.44 104.57 45.49C104.17 45.59 102.87 46 102.06 45.69C101.87 45.63 101.71 45.52 101.59 45.37C101.46 45.22 101.38 45.05 101.35 44.86C101.28 44.41 101.38 44 101.64 43.63C101.98 43.15 102.39 42.75 102.88 42.42C104.33 41.44 105.86 40.64 107.55 40.17C108.09 40.02 108.66 39.96 109.22 40.14C109.53 40.23 109.78 40.41 109.97 40.68C110.1 40.87 110.17 41.08 110.17 41.31C110.18 41.54 110.13 41.76 110.02 41.96C109.77 42.42 109.44 42.8 109.02 43.11C108.77 43.32 108.76 43.41 108.99 43.62C109.24 43.85 109.52 44.07 109.78 44.3C109.95 44.45 110.1 44.42 110.27 44.28C110.47 44.12 110.67 43.95 110.87 43.78C111.99 42.7 112.29 41.61 112.34 41.4C112.54 40.41 112.26 39.75 112.06 39.45Z" fill="#FFFFFF" fill-opacity="1.000000" fill-rule="evenodd"/>
		<path id="path" d="M92.44 65.63C92.02 65.17 91.51 65.08 90.94 65.27C90.33 65.47 89.85 65.84 89.49 66.37C88.89 67.28 88.04 67.85 87.08 68.29C86.37 68.6 85.64 68.83 84.89 68.99C82.32 69.65 79.7 69.45 79.7 69.45C78.69 69.39 78.07 68.45 78.25 67.64C78.36 67.18 78.54 66.76 78.79 66.36C79.07 65.92 79.39 65.49 79.73 65.09C81.35 63.08 83.29 61.5 85.71 60.54C86.87 60.09 88.06 59.78 89.32 59.77C89.45 59.77 89.57 59.74 89.69 59.67C90.22 59.31 90.36 58.49 89.8 57.88C89.56 57.63 89.27 57.48 88.93 57.41C88.08 57.31 87.23 57.28 86.38 57.31C86.15 57.32 85.92 57.33 85.7 57.34C85.02 57.38 84.34 57.43 83.66 57.5C80.97 57.77 78.57 58.23 78.57 58.23C78.27 58.31 78.02 58.46 77.82 58.68C75.5 61.06 64.62 72.58 63.79 73.55C63.11 74.34 63.49 74.9 64.28 75.16C64.42 75.21 64.57 75.23 64.72 75.23C65.11 75.26 65.51 75.28 65.91 75.3C66.73 75.33 67.56 75.38 68.39 75.37C69.22 75.36 70.04 75.28 70.86 75.23C70.99 75.23 71.12 75.21 71.25 75.19C71.86 75.11 72.46 75.04 73.07 74.95C73.72 74.87 74.37 74.76 75.01 74.62C76.3 74.28 77.59 73.92 78.86 73.52C80.29 73.09 81.71 72.65 83.11 72.14C84.81 71.51 86.5 70.84 88.18 70.13C89.3 69.65 90.4 69.08 91.38 68.32C91.83 67.97 92.27 67.58 92.56 67.06C92.69 66.83 92.75 66.59 92.73 66.32C92.7 66.06 92.61 65.83 92.44 65.63Z" fill="#FFFFFF" fill-opacity="1.000000" fill-rule="nonzero"/>
		<path id="path" d="M84.08 68.46C84.08 68.52 84.06 68.58 84.01 68.63C83.96 68.68 83.91 68.7 83.84 68.7L81.78 68.7C81.72 68.7 81.66 68.68 81.61 68.63C81.56 68.58 81.54 68.52 81.54 68.46L81.54 63.94C81.54 63.88 81.56 63.82 81.61 63.77C81.66 63.72 81.72 63.7 81.78 63.7L83.84 63.7C83.91 63.7 83.97 63.72 84.01 63.77C84.06 63.82 84.08 63.88 84.08 63.94L84.08 68.46Z" fill="#FFFFFF" fill-opacity="1.000000" fill-rule="evenodd"/>
		<path id="path" d="M50.2 43.53L50.63 43.53C51.25 43.53 51.5 43.39 51.5 42.81L51.5 37.57C51.5 36.99 51.25 36.85 50.63 36.85L50.2 36.85L50.2 36.51C51.71 36.4 52.49 36.1 52.93 35.62L53.4 35.62L53.4 42.8C53.4 43.38 53.65 43.52 54.26 43.52L54.59 43.52L54.59 43.85L50.2 43.85L50.2 43.53Z" fill="#FFFFFF" fill-opacity="1.000000" fill-rule="nonzero"/>
		<path id="path" d="M56.28 42.64C56.28 42.51 56.3 42.39 56.35 42.28C56.4 42.16 56.47 42.06 56.56 41.97C56.65 41.88 56.75 41.82 56.87 41.77C56.98 41.73 57.1 41.71 57.23 41.71C57.71 41.71 58.14 42.01 58.14 42.59C58.14 42.91 58 43.12 57.71 43.33C57.61 43.4 57.56 43.5 57.65 43.56C57.83 43.66 58.02 43.71 58.23 43.7C59.65 43.7 60.2 42.17 60.29 40.22C59.96 40.55 59.51 40.83 58.7 40.83C57.28 40.83 55.96 39.82 55.96 38.35C55.96 36.73 57.5 35.68 59.09 35.68C61.03 35.67 62.3 37.12 62.3 39.46C62.3 41.91 60.57 44.01 58.23 44.01C57.05 44.01 56.28 43.43 56.28 42.64ZM60.28 38.26C60.28 36.95 60 35.95 59.09 35.95C58.18 35.95 58.01 36.99 58.01 38.3C58.01 39.56 58.16 40.42 59.05 40.42C59.93 40.42 60.28 39.39 60.28 38.26Z" fill="#FFFFFF" fill-opacity="1.000000" fill-rule="nonzero"/>
		<path id="path" d="M70.08 41.52L70.08 41.96L68.91 41.96L68.91 42.82C68.91 43.39 69.15 43.52 69.74 43.52L69.97 43.52L69.97 43.86L65.88 43.86L65.88 43.53L66.22 43.53C66.81 43.53 67.05 43.39 67.05 42.82L67.05 41.96L63.44 41.96L63.44 41.61L67.89 35.73L68.91 35.73L68.91 41.53L70.08 41.52ZM67.05 37.54L64.05 41.52L67.05 41.52L67.05 37.54Z" fill="#FFFFFF" fill-opacity="1.000000" fill-rule="nonzero"/>
		<path id="path" d="M71.44 40.25C71.44 37.8 73.17 35.7 75.51 35.7C76.69 35.7 77.46 36.29 77.46 37.08C77.46 37.2 77.44 37.32 77.39 37.44C77.34 37.56 77.27 37.66 77.18 37.74C77.09 37.83 76.99 37.9 76.87 37.94C76.76 37.99 76.63 38.01 76.51 38.01C76.03 38.01 75.6 37.71 75.6 37.13C75.6 36.81 75.74 36.6 76.03 36.39C76.13 36.31 76.18 36.21 76.09 36.16C75.91 36.05 75.72 36.01 75.51 36.02C74.09 36.02 73.55 37.55 73.46 39.5C73.78 39.17 74.23 38.88 75.04 38.88C76.46 38.88 77.79 39.9 77.79 41.36C77.79 42.99 76.24 44.04 74.65 44.04C72.71 44.04 71.44 42.6 71.44 40.25ZM75.73 41.41C75.73 40.15 75.57 39.29 74.69 39.29C73.81 39.29 73.46 40.33 73.46 41.45C73.46 42.76 73.74 43.76 74.65 43.76C75.56 43.76 75.73 42.72 75.73 41.41Z" fill="#FFFFFF" fill-opacity="1.000000" fill-rule="nonzero"/>
	</g>
</svg>
